<?xml version="1.0" encoding="UTF-8"?><svg xmlns="http://www.w3.org/2000/svg" viewBox="0 0 308.9 168.82"><defs><style>.d{fill:#ffffff;}</style></defs><g id="a"/><g id="b"><g id="c"><g><path class="d" d="M32.98,22.97c0-3.19-3.28-2.47-4.87-1.93C11.79,26.58,.01,42.35,.01,60.95v103.5c-.01,2.35,1.86,4.27,4.14,4.27H28.8c2.29,0,4.16-1.92,4.16-4.27l.02-141.48Z"/><path class="d" d="M105.27,109.97h73.08c16.46-.03,53.76-3.76,53.76-40.81v-8.71c0-40.8-40.39-40.41-52.44-40.42,0,.01-89.89,.02-89.89,.02-2.3,0-4.16,1.91-4.16,4.27l.02,10.58c0,1.88,.22,3.76,.82,5.62,.87,2.78,2.87,5.48,5.47,7.01,2.58,1.55,5.39,2.05,8.15,2.05h82.42c7.07-.03,16.64,1.26,16.64,11.02v8.43c0,12.24-12.48,11.02-18.2,11.01H101.54c-43.86,0-44.74,32.72-44.73,39.07v45.45c-.01,2.35,1.86,4.26,4.15,4.26H218.37c1.79,0,3.61-.25,5.39-.92,2.69-.96,5.18-3.14,6.51-5.76,1.37-2.61,1.78-5.36,1.78-8.1v-11.27c0-2.35-1.85-4.26-4.15-4.26H89.41v-7.36c0-10.9-2.28-21.18,15.86-21.18"/><path class="d" d="M300.72,7.51h-.85v-2.24c.2-.05,.52-.1,.98-.1,1.12,0,1.64,.48,1.64,1.19,0,.82-.79,1.15-1.77,1.15m2.09,.58v-.1c.94-.29,1.6-.96,1.6-1.86,0-.72-.34-1.35-.75-1.69-.56-.38-1.22-.62-2.67-.62-1.26,0-2.24,.14-2.94,.29v7.8h1.78v-3.11h.84c.99,0,1.44,.39,1.58,1.25,.24,.91,.38,1.58,.62,1.86h1.9c-.19-.23-.32-.72-.56-1.91-.22-1.05-.64-1.67-1.4-1.91"/><path class="d" d="M301.09,14.13c-3.46,0-5.97-2.78-5.97-6.28s2.51-6.27,5.88-6.27h.05c3.41,0,5.89,2.83,5.89,6.27-.01,3.49-2.49,6.32-5.85,6.28m0-14.13h-.04c-4.39,0-7.9,3.5-7.9,7.85s3.51,7.91,7.9,7.91,7.85-3.45,7.85-7.91c0-4.35-3.42-7.85-7.81-7.85"/><path class="d" d="M255.93,165.44c0,3.19,3.29,2.47,4.86,1.93,16.31-5.55,28.1-21.32,28.1-39.91V23.96c0-2.35-1.86-4.26-4.15-4.26h-24.65c-2.29,0-4.16,1.91-4.16,4.26V165.44Z"/></g></g></g></svg>